<mxfile host="app.diagrams.net" modified="2023-06-28T14:57:40.301Z" agent="Mozilla/5.0 (Windows NT 10.0; Win64; x64) AppleWebKit/537.36 (KHTML, like Gecko) Chrome/107.0.0.0 Safari/537.36" etag="nrpe3XMja-3GnrbqWFkR" version="21.5.1">
  <diagram name="PÃ¡gina-1" id="QXhsyXSaARmZYcL9g207">
    <mxGraphModel dx="1035" dy="548" grid="1" gridSize="10" guides="1" tooltips="1" connect="1" arrows="1" fold="1" page="1" pageScale="1" pageWidth="827" pageHeight="1169" background="#FFFFFF" math="0" shadow="0">
      <root>
        <mxCell id="0" />
        <mxCell id="1" parent="0" />
        <mxCell id="gok0vQiup_49UM2aTYYi-1" value="AWS Cloud" style="points=[[0,0],[0.25,0],[0.5,0],[0.75,0],[1,0],[1,0.25],[1,0.5],[1,0.75],[1,1],[0.75,1],[0.5,1],[0.25,1],[0,1],[0,0.75],[0,0.5],[0,0.25]];outlineConnect=0;gradientColor=none;html=1;whiteSpace=wrap;fontSize=12;fontStyle=0;container=1;pointerEvents=0;collapsible=0;recursiveResize=0;shape=mxgraph.aws4.group;grIcon=mxgraph.aws4.group_aws_cloud_alt;strokeColor=#232F3E;fillColor=none;verticalAlign=top;align=left;spacingLeft=30;fontColor=#232F3E;dashed=0;" vertex="1" parent="1">
          <mxGeometry x="120" width="590" height="830" as="geometry" />
        </mxCell>
        <mxCell id="gok0vQiup_49UM2aTYYi-2" value="VPC" style="points=[[0,0],[0.25,0],[0.5,0],[0.75,0],[1,0],[1,0.25],[1,0.5],[1,0.75],[1,1],[0.75,1],[0.5,1],[0.25,1],[0,1],[0,0.75],[0,0.5],[0,0.25]];outlineConnect=0;gradientColor=none;html=1;whiteSpace=wrap;fontSize=12;fontStyle=0;container=1;pointerEvents=0;collapsible=0;recursiveResize=0;shape=mxgraph.aws4.group;grIcon=mxgraph.aws4.group_vpc;strokeColor=#248814;fillColor=none;verticalAlign=top;align=left;spacingLeft=30;fontColor=#AAB7B8;dashed=0;" vertex="1" parent="gok0vQiup_49UM2aTYYi-1">
          <mxGeometry x="120" y="40" width="410" height="570" as="geometry" />
        </mxCell>
        <mxCell id="gok0vQiup_49UM2aTYYi-4" value="Availability Zone" style="fillColor=none;strokeColor=#147EBA;dashed=1;verticalAlign=top;fontStyle=0;fontColor=#147EBA;whiteSpace=wrap;html=1;" vertex="1" parent="gok0vQiup_49UM2aTYYi-2">
          <mxGeometry x="80" y="40" width="240" height="240" as="geometry" />
        </mxCell>
        <mxCell id="gok0vQiup_49UM2aTYYi-5" value="Availability Zone" style="fillColor=none;strokeColor=#147EBA;dashed=1;verticalAlign=top;fontStyle=0;fontColor=#147EBA;whiteSpace=wrap;html=1;" vertex="1" parent="gok0vQiup_49UM2aTYYi-2">
          <mxGeometry x="80" y="320" width="240" height="240" as="geometry" />
        </mxCell>
        <mxCell id="gok0vQiup_49UM2aTYYi-6" value="Public subnet" style="points=[[0,0],[0.25,0],[0.5,0],[0.75,0],[1,0],[1,0.25],[1,0.5],[1,0.75],[1,1],[0.75,1],[0.5,1],[0.25,1],[0,1],[0,0.75],[0,0.5],[0,0.25]];outlineConnect=0;gradientColor=none;html=1;whiteSpace=wrap;fontSize=12;fontStyle=0;container=1;pointerEvents=0;collapsible=0;recursiveResize=0;shape=mxgraph.aws4.group;grIcon=mxgraph.aws4.group_security_group;grStroke=0;strokeColor=#248814;fillColor=#E9F3E6;verticalAlign=top;align=left;spacingLeft=30;fontColor=#248814;dashed=0;" vertex="1" parent="gok0vQiup_49UM2aTYYi-2">
          <mxGeometry x="120" y="90" width="160" height="160" as="geometry" />
        </mxCell>
        <mxCell id="gok0vQiup_49UM2aTYYi-9" value="" style="outlineConnect=0;dashed=0;verticalLabelPosition=bottom;verticalAlign=top;align=center;html=1;shape=mxgraph.aws3.ec2_compute_container;fillColor=#F58534;gradientColor=none;" vertex="1" parent="gok0vQiup_49UM2aTYYi-6">
          <mxGeometry x="50" y="62.75" width="60" height="34.5" as="geometry" />
        </mxCell>
        <mxCell id="gok0vQiup_49UM2aTYYi-12" value="Public subnet" style="points=[[0,0],[0.25,0],[0.5,0],[0.75,0],[1,0],[1,0.25],[1,0.5],[1,0.75],[1,1],[0.75,1],[0.5,1],[0.25,1],[0,1],[0,0.75],[0,0.5],[0,0.25]];outlineConnect=0;gradientColor=none;html=1;whiteSpace=wrap;fontSize=12;fontStyle=0;container=1;pointerEvents=0;collapsible=0;recursiveResize=0;shape=mxgraph.aws4.group;grIcon=mxgraph.aws4.group_security_group;grStroke=0;strokeColor=#248814;fillColor=#E9F3E6;verticalAlign=top;align=left;spacingLeft=30;fontColor=#248814;dashed=0;" vertex="1" parent="gok0vQiup_49UM2aTYYi-2">
          <mxGeometry x="120" y="370" width="160" height="160" as="geometry" />
        </mxCell>
        <mxCell id="gok0vQiup_49UM2aTYYi-13" value="" style="outlineConnect=0;dashed=0;verticalLabelPosition=bottom;verticalAlign=top;align=center;html=1;shape=mxgraph.aws3.ec2_compute_container;fillColor=#F58534;gradientColor=none;" vertex="1" parent="gok0vQiup_49UM2aTYYi-12">
          <mxGeometry x="50" y="62.75" width="60" height="34.5" as="geometry" />
        </mxCell>
        <mxCell id="gok0vQiup_49UM2aTYYi-22" style="edgeStyle=orthogonalEdgeStyle;rounded=0;orthogonalLoop=1;jettySize=auto;html=1;" edge="1" parent="gok0vQiup_49UM2aTYYi-1" source="gok0vQiup_49UM2aTYYi-15" target="gok0vQiup_49UM2aTYYi-9">
          <mxGeometry relative="1" as="geometry">
            <Array as="points">
              <mxPoint x="140" y="210" />
            </Array>
          </mxGeometry>
        </mxCell>
        <mxCell id="gok0vQiup_49UM2aTYYi-15" value="" style="sketch=0;outlineConnect=0;fontColor=#232F3E;gradientColor=none;fillColor=#4D27AA;strokeColor=none;dashed=0;verticalLabelPosition=bottom;verticalAlign=top;align=center;html=1;fontSize=12;fontStyle=0;aspect=fixed;pointerEvents=1;shape=mxgraph.aws4.internet_gateway;" vertex="1" parent="gok0vQiup_49UM2aTYYi-1">
          <mxGeometry x="81" y="300" width="78" height="78" as="geometry" />
        </mxCell>
        <mxCell id="gok0vQiup_49UM2aTYYi-17" value="" style="sketch=0;points=[[0,0,0],[0.25,0,0],[0.5,0,0],[0.75,0,0],[1,0,0],[0,1,0],[0.25,1,0],[0.5,1,0],[0.75,1,0],[1,1,0],[0,0.25,0],[0,0.5,0],[0,0.75,0],[1,0.25,0],[1,0.5,0],[1,0.75,0]];outlineConnect=0;fontColor=#232F3E;gradientColor=#F78E04;gradientDirection=north;fillColor=#D05C17;strokeColor=#ffffff;dashed=0;verticalLabelPosition=bottom;verticalAlign=top;align=center;html=1;fontSize=12;fontStyle=0;aspect=fixed;shape=mxgraph.aws4.resourceIcon;resIcon=mxgraph.aws4.ecr;" vertex="1" parent="gok0vQiup_49UM2aTYYi-1">
          <mxGeometry x="20" y="696" width="78" height="78" as="geometry" />
        </mxCell>
        <mxCell id="gok0vQiup_49UM2aTYYi-18" value="" style="outlineConnect=0;dashed=0;verticalLabelPosition=bottom;verticalAlign=top;align=center;html=1;shape=mxgraph.aws3.cognito;fillColor=#AD688B;gradientColor=none;" vertex="1" parent="gok0vQiup_49UM2aTYYi-1">
          <mxGeometry x="140" y="696" width="76.5" height="93" as="geometry" />
        </mxCell>
        <mxCell id="gok0vQiup_49UM2aTYYi-19" value="" style="sketch=0;outlineConnect=0;fontColor=#232F3E;gradientColor=none;fillColor=#2E27AD;strokeColor=none;dashed=0;verticalLabelPosition=bottom;verticalAlign=top;align=center;html=1;fontSize=12;fontStyle=0;aspect=fixed;pointerEvents=1;shape=mxgraph.aws4.rds_instance_alt;" vertex="1" parent="gok0vQiup_49UM2aTYYi-1">
          <mxGeometry x="264" y="696" width="78" height="78" as="geometry" />
        </mxCell>
        <mxCell id="gok0vQiup_49UM2aTYYi-23" style="edgeStyle=orthogonalEdgeStyle;rounded=0;orthogonalLoop=1;jettySize=auto;html=1;" edge="1" parent="gok0vQiup_49UM2aTYYi-1" target="gok0vQiup_49UM2aTYYi-13">
          <mxGeometry relative="1" as="geometry">
            <mxPoint x="141" y="380" as="sourcePoint" />
            <mxPoint x="260" y="490" as="targetPoint" />
            <Array as="points">
              <mxPoint x="141" y="490" />
            </Array>
          </mxGeometry>
        </mxCell>
        <mxCell id="gok0vQiup_49UM2aTYYi-25" style="edgeStyle=orthogonalEdgeStyle;rounded=0;orthogonalLoop=1;jettySize=auto;html=1;" edge="1" parent="gok0vQiup_49UM2aTYYi-1" target="gok0vQiup_49UM2aTYYi-19">
          <mxGeometry relative="1" as="geometry">
            <mxPoint x="50" y="650" as="sourcePoint" />
            <mxPoint x="153" y="650" as="targetPoint" />
            <Array as="points">
              <mxPoint x="303" y="650" />
            </Array>
          </mxGeometry>
        </mxCell>
        <mxCell id="gok0vQiup_49UM2aTYYi-27" value="ECR" style="text;strokeColor=none;align=center;fillColor=none;html=1;verticalAlign=middle;whiteSpace=wrap;rounded=0;fontStyle=1;fontSize=13;" vertex="1" parent="gok0vQiup_49UM2aTYYi-1">
          <mxGeometry x="29" y="780" width="60" height="30" as="geometry" />
        </mxCell>
        <mxCell id="gok0vQiup_49UM2aTYYi-29" value="MtSql" style="text;strokeColor=none;align=center;fillColor=none;html=1;verticalAlign=middle;whiteSpace=wrap;rounded=0;fontStyle=1;fontSize=13;" vertex="1" parent="gok0vQiup_49UM2aTYYi-1">
          <mxGeometry x="273" y="789" width="60" height="30" as="geometry" />
        </mxCell>
        <mxCell id="gok0vQiup_49UM2aTYYi-32" value="" style="sketch=0;points=[[0,0,0],[0.25,0,0],[0.5,0,0],[0.75,0,0],[1,0,0],[0,1,0],[0.25,1,0],[0.5,1,0],[0.75,1,0],[1,1,0],[0,0.25,0],[0,0.5,0],[0,0.75,0],[1,0.25,0],[1,0.5,0],[1,0.75,0]];outlineConnect=0;fontColor=#232F3E;gradientColor=#60A337;gradientDirection=north;fillColor=#277116;strokeColor=#ffffff;dashed=0;verticalLabelPosition=bottom;verticalAlign=top;align=center;html=1;fontSize=12;fontStyle=0;aspect=fixed;shape=mxgraph.aws4.resourceIcon;resIcon=mxgraph.aws4.s3;" vertex="1" parent="gok0vQiup_49UM2aTYYi-1">
          <mxGeometry x="377" y="696" width="78" height="78" as="geometry" />
        </mxCell>
        <mxCell id="gok0vQiup_49UM2aTYYi-14" value="ECS Cluster" style="points=[[0,0],[0.25,0],[0.5,0],[0.75,0],[1,0],[1,0.25],[1,0.5],[1,0.75],[1,1],[0.75,1],[0.5,1],[0.25,1],[0,1],[0,0.75],[0,0.5],[0,0.25]];outlineConnect=0;gradientColor=none;html=1;whiteSpace=wrap;fontSize=12;fontStyle=0;container=1;pointerEvents=0;collapsible=0;recursiveResize=0;shape=mxgraph.aws4.group;grIcon=mxgraph.aws4.group_elastic_beanstalk;strokeColor=#D86613;fillColor=none;verticalAlign=top;align=left;spacingLeft=30;fontColor=#D86613;dashed=0;" vertex="1" parent="1">
          <mxGeometry x="377" y="160" width="120" height="380" as="geometry" />
        </mxCell>
        <mxCell id="gok0vQiup_49UM2aTYYi-30" value="App Container" style="text;strokeColor=none;align=center;fillColor=none;html=1;verticalAlign=middle;whiteSpace=wrap;rounded=0;fontStyle=1;fontSize=13;" vertex="1" parent="gok0vQiup_49UM2aTYYi-14">
          <mxGeometry x="33" y="347.25" width="60" height="30" as="geometry" />
        </mxCell>
        <mxCell id="gok0vQiup_49UM2aTYYi-21" style="edgeStyle=orthogonalEdgeStyle;rounded=0;orthogonalLoop=1;jettySize=auto;html=1;" edge="1" parent="1" source="gok0vQiup_49UM2aTYYi-16" target="gok0vQiup_49UM2aTYYi-15">
          <mxGeometry relative="1" as="geometry">
            <Array as="points">
              <mxPoint x="180" y="350" />
              <mxPoint x="180" y="350" />
            </Array>
          </mxGeometry>
        </mxCell>
        <mxCell id="gok0vQiup_49UM2aTYYi-16" value="" style="sketch=0;outlineConnect=0;fontColor=#232F3E;gradientColor=none;fillColor=#232F3D;strokeColor=none;dashed=0;verticalLabelPosition=bottom;verticalAlign=top;align=center;html=1;fontSize=12;fontStyle=0;aspect=fixed;pointerEvents=1;shape=mxgraph.aws4.internet_alt2;" vertex="1" parent="1">
          <mxGeometry x="20" y="311" width="78" height="78" as="geometry" />
        </mxCell>
        <mxCell id="gok0vQiup_49UM2aTYYi-24" style="edgeStyle=orthogonalEdgeStyle;rounded=0;orthogonalLoop=1;jettySize=auto;html=1;" edge="1" parent="1" target="gok0vQiup_49UM2aTYYi-17">
          <mxGeometry relative="1" as="geometry">
            <mxPoint x="150" y="350" as="sourcePoint" />
            <mxPoint x="420" y="500" as="targetPoint" />
            <Array as="points">
              <mxPoint x="170" y="350" />
            </Array>
          </mxGeometry>
        </mxCell>
        <mxCell id="gok0vQiup_49UM2aTYYi-26" style="edgeStyle=orthogonalEdgeStyle;rounded=0;orthogonalLoop=1;jettySize=auto;html=1;entryX=0.5;entryY=0;entryDx=0;entryDy=0;entryPerimeter=0;" edge="1" parent="1" target="gok0vQiup_49UM2aTYYi-18">
          <mxGeometry relative="1" as="geometry">
            <mxPoint x="180" y="650" as="sourcePoint" />
            <mxPoint x="433" y="696" as="targetPoint" />
            <Array as="points">
              <mxPoint x="298" y="650" />
            </Array>
          </mxGeometry>
        </mxCell>
        <mxCell id="gok0vQiup_49UM2aTYYi-28" value="Cognito" style="text;strokeColor=none;align=center;fillColor=none;html=1;verticalAlign=middle;whiteSpace=wrap;rounded=0;fontStyle=1;fontSize=13;" vertex="1" parent="1">
          <mxGeometry x="264" y="792" width="60" height="30" as="geometry" />
        </mxCell>
        <mxCell id="gok0vQiup_49UM2aTYYi-31" value="App Container" style="text;strokeColor=none;align=center;fillColor=none;html=1;verticalAlign=middle;whiteSpace=wrap;rounded=0;fontStyle=1;fontSize=13;" vertex="1" parent="1">
          <mxGeometry x="408" y="235.25" width="60" height="30" as="geometry" />
        </mxCell>
        <mxCell id="gok0vQiup_49UM2aTYYi-33" style="edgeStyle=orthogonalEdgeStyle;rounded=0;orthogonalLoop=1;jettySize=auto;html=1;entryX=0.5;entryY=0;entryDx=0;entryDy=0;entryPerimeter=0;" edge="1" parent="1" target="gok0vQiup_49UM2aTYYi-32">
          <mxGeometry relative="1" as="geometry">
            <mxPoint x="180" y="650" as="sourcePoint" />
            <mxPoint x="433" y="696" as="targetPoint" />
            <Array as="points">
              <mxPoint x="536" y="650" />
            </Array>
          </mxGeometry>
        </mxCell>
      </root>
    </mxGraphModel>
  </diagram>
</mxfile>
